<svg height="512pt" viewBox="-104 0 512 512.032" width="512pt" xmlns="http://www.w3.org/2000/svg"><path d="m296.046875 392.015625v.242187c-.160156 8.71875-7.277344 15.757813-16 15.757813h-184.078125c0-22.160156 17.832031-39.917969 40-40h64c0-22.078125 17.917969-40 40-40h56.078125zm0 0" fill="#ed5565"/><path d="m280.046875 408.015625h-256c-8.71875 0-15.839844-7.039063-16-15.757813v95.757813c0 8.800781 7.199219 16 16 16h256c8.800781 0 16-7.199219 16-16v-95.757813c-.160156 8.71875-7.277344 15.757813-16 15.757813zm0 0" fill="#ccd1d9"/><path d="m76.609375 73.136719c-4.5625 4.558593-12 4.558593-16.5625 0-4.640625 4.558593-12 4.558593-16.558594 0-2.320312-2.242188-3.441406-5.28125-3.441406-8.320313 0-2.960937 1.121094-5.921875 3.441406-8.242187l16.558594-16.558594 16.5625 16.558594c4.558594 4.5625 4.558594 12 0 16.5625zm0 0" fill="#656d78"/><path d="m152.046875 259.695312c16.480469 16.480469 43.121094 16.480469 59.601563 0 16.480468-16.480468 16.480468-43.199218.078124-59.679687l-59.679687-59.601563-59.679687 59.601563c-8.238282 8.242187-12.320313 19.039063-12.320313 29.839844s4.082031 21.59375 12.320313 29.832031c16.480468 16.488281 43.199218 16.488281 59.679687.007812zm144-235.679687v304h-56.078125c-22.082031 0-40 17.921875-40 40h-64c-22.167969.082031-40 17.839844-40 40h-71.921875c-8.71875 0-15.839844-7.039063-16-15.757813 0-.089843 0-.167968 0-.242187v-368c0-8.800781 7.199219-16 16-16h256c8.800781 0 16 7.199219 16 16zm-219.4375 49.121094c4.550781-4.5625 4.550781-12 0-16.5625l-16.5625-16.558594-16.558594 16.558594c-2.320312 2.320312-3.441406 5.28125-3.441406 8.242187 0 3.039063 1.121094 6.078125 3.441406 8.320313 4.558594 4.558593 11.917969 4.558593 16.558594 0 4.5625 4.558593 12 4.558593 16.5625 0zm0 0" fill="#e6e9ed"/><path d="m211.726562 200.015625c16.402344 16.480469 16.402344 43.199219-.078124 59.679687-16.488282 16.480469-43.128907 16.480469-59.601563 0-16.480469 16.480469-43.199219 16.480469-59.679687 0-8.238282-8.238281-12.320313-19.039062-12.320313-29.839843 0-10.808594 4.082031-21.597657 12.320313-29.839844l59.679687-59.601563zm0 0" fill="#656d78"/><path d="m280.0625 416h-256.046875c-13.230469 0-24-10.769531-24-24v-368c0-13.230469 10.769531-24 24-24h256.046875c13.234375 0 24 10.769531 24 24v368c0 13.230469-10.765625 24-24 24zm-256.046875-400c-4.414063 0-8 3.59375-8 8v368c0 4.414062 3.585937 8 8 8h256.046875c4.417969 0 8-3.585938 8-8v-368c0-4.40625-3.582031-8-8-8zm0 0"/><path d="m280.0625 448h-256.046875c-13.230469 0-24-10.769531-24-24v-31.785156c0-4.421875 3.578125-8 8-8 4.425781 0 8 3.578125 8 8v31.785156c0 4.414062 3.585937 8 8 8h256.046875c4.417969 0 8-3.585938 8-8v-31.785156c0-4.421875 3.578125-8 8-8 4.425781 0 8 3.578125 8 8v31.785156c0 13.230469-10.765625 24-24 24zm0 0"/><path d="m280.0625 479.902344h-256.046875c-13.230469 0-24-10.765625-24-24v-31.796875c0-4.425781 3.578125-8 8-8 4.425781 0 8 3.574219 8 8v31.796875c0 4.417968 3.585937 8 8 8h256.046875c4.417969 0 8-3.582032 8-8v-31.796875c0-4.425781 3.578125-8 8-8 4.425781 0 8 3.574219 8 8v31.796875c0 13.242187-10.765625 24-24 24zm0 0"/><path d="m280.0625 512.03125h-256.046875c-13.230469 0-24-10.765625-24-24v-32.015625c0-4.421875 3.578125-8 8-8 4.425781 0 8 3.578125 8 8v32.015625c0 4.417969 3.585937 8 8 8h256.046875c4.417969 0 8-3.582031 8-8v-32.015625c0-4.421875 3.578125-8 8-8 4.425781 0 8 3.578125 8 8v32.015625c0 13.234375-10.765625 24-24 24zm0 0"/><path d="m181.847656 280.023438c-10.878906 0-21.230468-3.4375-29.816406-9.808594-8.582031 6.371094-18.941406 9.808594-29.824219 9.808594-13.40625 0-26.007812-5.214844-35.488281-14.703126-19.566406-19.558593-19.566406-51.398437 0-70.96875l59.640625-59.648437c1.984375-1.992187 4.898437-2.773437 7.601563-2.101563 1.40625.351563 2.71875 1.085938 3.742187 2.109376l59.640625 59.648437c19.542969 19.578125 19.535156 51.410156-.015625 70.96875-9.472656 9.480469-22.082031 14.695313-35.480469 14.695313zm-29.816406-28.34375c2.046875 0 4.097656.785156 5.65625 2.335937 6.457031 6.449219 15.03125 10 24.160156 10 9.136719 0 17.71875-3.550781 24.167969-10.007813 13.320313-13.328124 13.328125-35 .015625-48.335937l-54.007812-54.007813-53.992188 53.992188c-13.328125 13.335938-13.328125 35.023438 0 48.351562 6.457031 6.457032 15.039062 10.007813 24.167969 10.007813h.007812c9.128907 0 17.703125-3.550781 24.167969-10 1.5625-1.550781 3.609375-2.335937 5.65625-2.335937zm0 0"/><path d="m68.320312 84.558594c-2.914062 0-5.726562-.628906-8.289062-1.816406-7.214844 3.328124-16.457031 1.824218-22.222656-3.949219-7.679688-7.6875-7.679688-20.191407-.015625-27.871094l16.582031-16.570313c2.449219-2.441406 6.167969-3.046874 9.25-1.488281.765625.382813 1.480469.898438 2.078125 1.503907l16.5625 16.5625c7.679687 7.671874 7.679687 20.175781.007813 27.863281-3.730469 3.71875-8.6875 5.765625-13.953126 5.765625zm-8.289062-19.429688c2.046875 0 4.097656.78125 5.648438 2.335938.953124.941406 2.0625 1.085937 2.640624 1.085937.574219 0 1.6875-.144531 2.640626-1.085937 1.429687-1.441406 1.4375-3.792969-.007813-5.242188l-10.921875-10.917968-10.917969 10.910156c-1.441406 1.441406-1.449219 3.808594.007813 5.257812.933594.933594 2.046875 1.078125 2.613281 1.078125.578125 0 1.699219-.144531 2.65625-1.101562 1.5625-1.546875 3.601563-2.320313 5.640625-2.320313zm0 0"/><path d="m152.03125 312.046875c-4.421875 0-8-3.574219-8-8v-44.359375c0-4.414062 3.578125-8 8-8 4.425781 0 8 3.585938 8 8v44.359375c0 4.425781-3.574219 8-8 8zm0 0"/><path d="m192.015625 312.046875h-79.984375c-4.421875 0-8-3.574219-8-8 0-4.421875 3.578125-8 8-8h79.984375c4.425781 0 8 3.578125 8 8 0 4.425781-3.574219 8-8 8zm0 0"/><path d="m95.984375 416c-4.425781 0-8-3.574219-8-8 0-26.496094 21.550781-48.046875 48.046875-48.046875 4.425781 0 8 3.574219 8 8 0 4.421875-3.574219 8-8 8-17.671875 0-32.046875 14.375-32.046875 32.046875 0 4.425781-3.578125 8-8 8zm0 0"/><path d="m200 376.015625c-4.425781 0-8-3.574219-8-8 0-26.472656 21.527344-48 48-48 4.425781 0 8 3.578125 8 8 0 4.425781-3.574219 8-8 8-17.648438 0-32 14.351563-32 32 0 4.425781-3.574219 8-8 8zm0 0"/><path d="m296.078125 336.015625h-56.0625c-4.421875 0-8-3.574219-8-8 0-4.421875 3.578125-8 8-8h56.0625c4.425781 0 8 3.578125 8 8 0 4.425781-3.574219 8-8 8zm0 0"/><path d="m224.015625 376.015625h-88.078125c-4.425781 0-8-3.574219-8-8 0-4.421875 3.574219-8 8-8h88.078125c4.425781 0 8 3.578125 8 8 0 4.425781-3.574219 8-8 8zm0 0"/><path d="m256.015625 455.984375c-4.421875 0-8-3.578125-8-8v-39.984375c0-4.425781 3.578125-8 8-8 4.425781 0 8 3.574219 8 8v39.984375c0 4.421875-3.574219 8-8 8zm0 0"/><path d="m216.015625 504.03125c-4.421875 0-8-3.574219-8-8v-88.03125c0-4.425781 3.578125-8 8-8 4.425781 0 8 3.574219 8 8v88.03125c0 4.425781-3.574219 8-8 8zm0 0"/><path d="m176.015625 463.984375c-4.421875 0-8-3.578125-8-8v-47.984375c0-4.425781 3.578125-8 8-8 4.425781 0 8 3.574219 8 8v47.984375c0 4.421875-3.574219 8-8 8zm0 0"/><path d="m136.015625 488.015625c-4.421875 0-8-3.574219-8-8v-72.015625c0-4.425781 3.578125-8 8-8 4.425781 0 8 3.574219 8 8v72.015625c0 4.425781-3.574219 8-8 8zm0 0"/><path d="m95.984375 431.953125c-4.425781 0-8-3.578125-8-8v-15.953125c0-4.425781 3.574219-8 8-8 4.421875 0 8 3.574219 8 8v15.953125c0 4.421875-3.578125 8-8 8zm0 0"/></svg>