<svg height="512pt" viewBox="0 0 512 512" width="512pt" xmlns="http://www.w3.org/2000/svg"><path d="m443.039062 364c-17.117187 29.679688-40.320312 53.839844-67.039062 71.601562v-27.601562c0-26.550781-21.441406-48-48-48h-32v-25.59375c28.480469-14.558594 48-44.238281 48-78.40625v-48c0-40.160156-27.039062-74.160156-63.839844-84.640625-7.679687-2.160156-15.761718-3.359375-24.160156-3.359375-8.238281 0-16.238281 1.128906-23.839844 3.28125-36.960937 10.398438-64.160156 44.398438-64.160156 84.71875v48c0 34.167969 19.519531 63.839844 48 78.40625v25.59375h-32c-26.558594 0-48 21.449219-48 48v27.601562c-29.121094-19.441406-52.078125-44.882812-68.320312-73.761718-33.832032-60.398438-37.832032-135.679688-5.441407-201.359375 2.160157-4.167969 4.320313-8.402344 6.722657-12.488281 20.078124-34.800782 48.480468-61.914063 81.191406-80.230469 60.40625-33.921875 135.6875-37.921875 201.367187-5.523438 4.160157 2.167969 8.402344 4.320313 12.480469 6.722657 34.800781 20.078124 61.921875 48.488281 80.320312 81.199218 33.832032 60.398438 37.832032 135.679688 5.441407 201.359375-2.160157 4.160157-4.320313 8.402344-6.722657 12.480469zm0 0" fill="#ed5565"/><path d="m344 224-24-24s-29.679688 16-64 16-64-16-64-16l-24 24v-16c0-40.320312 27.199219-74.320312 64.160156-84.71875 7.601563-2.152344 15.601563-3.28125 23.839844-3.28125 8.398438 0 16.480469 1.199219 24.160156 3.359375 36.800782 10.480469 63.839844 44.480469 63.839844 84.640625zm0 0" fill="#e6e9ed"/><path d="m280.160156 123.359375c-7.679687-2.160156-15.761718-3.359375-24.160156-3.359375-4.128906 0-8.191406.28125-12.175781.832031 4.199219.566407 8.3125 1.398438 12.3125 2.519531 34.398437 9.800782 60.246093 40.136719 63.488281 76.839844.230469-.121094.375-.191406.375-.191406l24 24v-16c0-40.160156-27.039062-74.160156-63.839844-84.640625zm0 0" fill="#ccd1d9"/><path d="m344 224v32c0 34.167969-19.519531 63.839844-48 78.40625-12 6.152344-25.601562 9.59375-40 9.59375s-28-3.441406-40-9.59375c-28.480469-14.558594-48-44.238281-48-78.40625v-32l24-24s29.679688 16 64 16 64-16 64-16zm0 0" fill="#eac6bb"/><path d="m320 200-.023438.015625v55.984375c0 34.167969-19.519531 63.839844-48 78.40625-8.601562 4.417969-18.039062 7.363281-27.992187 8.714844 3.9375.535156 7.9375.878906 12.015625.878906 14.398438 0 28-3.441406 40-9.59375 28.480469-14.558594 48-44.238281 48-78.40625v-32zm0 0" fill="#d3b1a9"/><path d="m222.800781 469.359375v.089844c-21.191406-3.28125-42.234375-9.769531-62.320312-19.679688-4.160157-2.167969-8.402344-4.320312-12.480469-6.730469-4.078125-2.398437-8.078125-4.871093-12-7.4375v-27.601562c0-26.550781 21.441406-48 48-48h32v32h-31.839844zm0 0" fill="#656d78"/><path d="m256 344c14.398438 0 28-3.441406 40-9.59375v25.59375l-40 16-40-16v-25.59375c12 6.152344 25.601562 9.59375 40 9.59375zm0 0" fill="#f5f7fa"/><path d="m216 360 40 16-40 16zm0 0" fill="#ed5565"/><path d="m296 360 .160156 32-40.160156-16zm0 0" fill="#ed5565"/><path d="m216 392 40-16 40.160156 16-40 80-40-80zm0 0" fill="#e6e9ed"/><path d="m376 408v27.601562c-4.640625 3.117188-9.359375 6-14.160156 8.71875-22.488282 12.558594-47.046875 21.039063-72.40625 25.039063l38.726562-77.359375h-32l-.160156-32h32c26.558594 0 48 21.449219 48 48zm0 0" fill="#656d78"/><path d="m328 360h-24.023438c26.558594 0 48 21.449219 48 48v41.273438c3.296876-1.632813 6.648438-3.160157 9.863282-4.953126 4.800781-2.71875 9.511718-5.601562 14.160156-8.71875v-27.601562c0-26.550781-21.441406-48-48-48zm0 0" fill="#434a54"/><path d="m328.160156 392-38.71875 77.359375c-10.960937 1.769531-22.082031 2.640625-33.28125 2.640625l40-80zm0 0" fill="#aab2bd"/><path d="m216.160156 392 40 80c-11.039062 0-22.230468-.800781-33.359375-2.550781v-.089844l-38.640625-77.359375zm0 0" fill="#aab2bd"/><path d="m256 480c-123.511719 0-224-100.488281-224-224s100.488281-224 224-224 224 100.488281 224 224-100.488281 224-224 224zm0-432c-114.695312 0-208 93.304688-208 208s93.304688 208 208 208 208-93.304688 208-208-93.304688-208-208-208zm0 0"/><path d="m72 264h-64c-4.425781 0-8-3.574219-8-8s3.574219-8 8-8h64c4.425781 0 8 3.574219 8 8s-3.574219 8-8 8zm0 0"/><path d="m504 264h-64c-4.425781 0-8-3.574219-8-8s3.574219-8 8-8h64c4.425781 0 8 3.574219 8 8s-3.574219 8-8 8zm0 0"/><path d="m256 80c-4.425781 0-8-3.574219-8-8v-64c0-4.425781 3.574219-8 8-8s8 3.574219 8 8v64c0 4.425781-3.574219 8-8 8zm0 0"/><path d="m256 512c-4.425781 0-8-3.574219-8-8v-32c0-4.425781 3.574219-8 8-8s8 3.574219 8 8v32c0 4.425781-3.574219 8-8 8zm0 0"/><path d="m136.128906 416.128906c-4.425781 0-8-3.578125-8-8 0-30.871094 25.128906-56 56-56 4.421875 0 8 3.574219 8 8 0 4.421875-3.578125 8-8 8-22.058594 0-40 17.941406-40 40 0 4.414063-3.585937 8-8 8zm0 0"/><path d="m216.128906 368.144531-32.007812-.015625c-4.417969 0-7.992188-3.585937-7.992188-8 0-4.425781 3.582032-8 8-8h.007813l32 .015625c4.414062 0 7.992187 3.582031 7.992187 8 0 4.414063-3.59375 8-8 8zm0 0"/><path d="m136.128906 443.703125c-4.425781 0-8-3.574219-8-8v-27.574219c0-4.425781 3.574219-8 8-8 4.421875 0 8 3.574219 8 8v27.574219c0 4.425781-3.585937 8-8 8zm0 0"/><path d="m376.128906 416.128906c-4.425781 0-8-3.578125-8-8 0-22.058594-17.945312-40-40-40-4.425781 0-8-3.578125-8-8 0-4.425781 3.574219-8 8-8 30.871094 0 56 25.128906 56 56 0 4.414063-3.585937 8-8 8zm0 0"/><path d="m296.128906 368.144531c-4.417968 0-8-3.578125-8-8 0-4.417969 3.574219-8 7.992188-8l32-.015625h.007812c4.414063 0 8 3.574219 8 8 0 4.414063-3.578125 8-7.992187 8zm0 0"/><path d="m216.128906 368.144531c-4.425781 0-8-3.578125-8-8v-25.609375c0-4.421875 3.574219-8 8-8 4.421875 0 8 3.578125 8 8v25.609375c0 4.414063-3.585937 8-8 8zm0 0"/><path d="m296.128906 368.128906c-4.425781 0-8-3.578125-8-8v-25.59375c0-4.421875 3.574219-8 8-8 4.421875 0 8 3.578125 8 8v25.59375c0 4.414063-3.585937 8-8 8zm0 0"/><path d="m256.128906 352.128906c-52.9375 0-96-43.066406-96-95.992187 0-4.425781 3.574219-8 8-8 4.421875 0 8 3.574219 8 8 0 44.109375 35.886719 79.992187 80 79.992187 44.109375 0 80-35.882812 80-79.992187 0-4.425781 3.574219-8 8-8 4.421875 0 8 3.574219 8 8 0 52.925781-43.066406 95.992187-96 95.992187zm0 0"/><path d="m344.128906 216.128906c-4.425781 0-8-3.578125-8-8 0-44.113281-35.890625-79.992187-80-79.992187-44.113281 0-80 35.878906-80 79.992187 0 4.421875-3.578125 8-8 8-4.425781 0-8-3.578125-8-8 0-52.929687 43.0625-95.992187 96-95.992187 52.933594 0 96 43.0625 96 95.992187 0 4.414063-3.585937 8-8 8zm0 0"/><path d="m168.128906 264.144531c-4.425781 0-8-3.578125-8-8v-48.015625c0-4.425781 3.574219-8 8-8 4.421875 0 8 3.574219 8 8v48.015625c0 4.414063-3.585937 8-8 8zm0 0"/><path d="m344.128906 264.152344c-4.425781 0-8-3.578125-8-8v-48.023438c0-4.425781 3.574219-8 8-8 4.421875 0 8 3.574219 8 8v48.023438c0 4.414062-3.585937 8-8 8zm0 0"/><path d="m344.128906 232.128906c-2.050781 0-4.097656-.785156-5.65625-2.34375l-24-24c-3.128906-3.128906-3.128906-8.183594 0-11.3125s8.183594-3.128906 11.3125 0l24 24c3.125 3.128906 3.125 8.183594 0 11.3125-1.570312 1.558594-3.617187 2.34375-5.65625 2.34375zm0 0"/><path d="m256.128906 224.128906c-35.882812 0-66.503906-16.265625-67.792968-16.953125-3.886719-2.097656-5.34375-6.9375-3.257813-10.832031 2.097656-3.878906 6.921875-5.367188 10.832031-3.265625.28125.152344 28.480469 15.050781 60.21875 15.050781 31.894532 0 59.925782-14.890625 60.207032-15.050781 3.871093-2.085937 8.742187-.628906 10.832031 3.257813 2.089843 3.886718.632812 8.742187-3.257813 10.832031-1.277344.6875-31.902344 16.960937-67.78125 16.960937zm0 0"/><path d="m168.128906 232.128906c-2.050781 0-4.097656-.785156-5.65625-2.34375-3.128906-3.128906-3.128906-8.183594 0-11.3125l24-24c3.128906-3.128906 8.183594-3.128906 11.3125 0 3.125 3.128906 3.125 8.183594 0 11.3125l-24 24c-1.570312 1.558594-3.617187 2.34375-5.65625 2.34375zm0 0"/><path d="m264.246094 312.128906h-16c-4.421875 0-8-3.578125-8-8 0-4.425781 3.578125-8 8-8h16c4.425781 0 8 3.574219 8 8 0 4.421875-3.574219 8-8 8zm0 0"/><path d="m272.246094 320.128906c-2.046875 0-4.09375-.785156-5.652344-2.34375l-8-8c-3.128906-3.128906-3.128906-8.183594 0-11.3125 3.125-3.128906 8.183594-3.128906 11.308594 0l8 8c3.128906 3.128906 3.128906 8.183594 0 11.3125-1.558594 1.558594-3.605469 2.34375-5.65625 2.34375zm0 0"/><path d="m240.246094 320.128906c-2.046875 0-4.09375-.785156-5.652344-2.34375-3.128906-3.128906-3.128906-8.183594 0-11.3125l8-8c3.125-3.128906 8.183594-3.128906 11.308594 0 3.128906 3.128906 3.128906 8.183594 0 11.3125l-8 8c-1.558594 1.558594-3.605469 2.34375-5.65625 2.34375zm0 0"/><path d="m256.128906 168.128906c-4.425781 0-8-3.578125-8-8v-39.992187c0-4.425781 3.574219-8 8-8 4.421875 0 8 3.574219 8 8v39.992187c0 4.414063-3.585937 8-8 8zm0 0"/><path d="m288.238281 160.128906c-3.503906 0-6.710937-2.3125-7.695312-5.839844l-8-28.632812c-1.183594-4.257812 1.296875-8.671875 5.546875-9.855469 4.253906-1.167969 8.671875 1.289063 9.855468 5.542969l8 28.632812c1.183594 4.253907-1.296874 8.671876-5.546874 9.855469-.71875.199219-1.4375.296875-2.160157.296875zm0 0"/><path d="m224.257812 160.128906c-.714843 0-1.441406-.097656-2.160156-.296875-4.257812-1.175781-6.746094-5.59375-5.554687-9.847656l8-28.710937c1.183593-4.257813 5.59375-6.761719 9.847656-5.554688 4.257813 1.175781 6.746094 5.59375 5.554687 9.847656l-8 28.714844c-.976562 3.535156-4.183593 5.847656-7.6875 5.847656zm0 0"/><path d="m216.128906 400.128906c-3.167968 0-6.175781-1.898437-7.433594-5.03125-1.640624-4.105468.359376-8.761718 4.464844-10.402344l80-31.984374c4.105469-1.632813 8.761719.351562 10.398438 4.464843 1.640625 4.105469-.359375 8.761719-4.460938 10.398438l-80 31.984375c-.976562.386718-1.976562.570312-2.96875.570312zm0 0"/><path d="m296.246094 400.128906c-.988282 0-1.988282-.175781-2.964844-.570312l-80.128906-31.984375c-4.105469-1.636719-6.105469-6.285157-4.464844-10.398438 1.640625-4.105469 6.296875-6.097656 10.402344-4.464843l80.125 31.984374c4.105468 1.640626 6.105468 6.289063 4.464844 10.402344-1.246094 3.117188-4.253907 5.03125-7.433594 5.03125zm0 0"/><path d="m296.246094 400.128906c-4.40625 0-7.980469-3.5625-8-7.96875l-.125-31.984375c-.015625-4.421875 3.542968-8.015625 7.96875-8.03125h.03125c4.40625 0 7.984375 3.558594 8 7.96875l.125 31.984375c.019531 4.421875-3.542969 8.015625-7.964844 8.03125-.007812 0-.023438 0-.035156 0zm0 0"/><path d="m216.128906 400.128906c-4.425781 0-8-3.578125-8-8v-31.984375c0-4.425781 3.574219-8 8-8 4.421875 0 8 3.574219 8 8v31.984375c0 4.414063-3.585937 8-8 8zm0 0"/><path d="m256.238281 480.136719c-1.199219 0-2.421875-.273438-3.566406-.839844-3.953125-1.976563-5.550781-6.785156-3.574219-10.738281l40-80.007813c1.964844-3.949219 6.789063-5.535156 10.734375-3.574219 3.953125 1.976563 5.550781 6.785157 3.574219 10.734376l-40 80.007812c-1.398438 2.792969-4.230469 4.417969-7.167969 4.417969zm0 0"/><path d="m289.59375 477.496094c-1.203125 0-2.425781-.273438-3.570312-.839844-3.953126-1.976562-5.550782-6.785156-3.574219-10.734375l38.679687-77.371094c1.96875-3.949219 6.78125-5.535156 10.734375-3.574219 3.953125 1.976563 5.550781 6.785157 3.578125 10.734376l-38.679687 77.367187c-1.402344 2.792969-4.234375 4.417969-7.167969 4.417969zm0 0"/><path d="m328.28125 400.128906h-32.035156c-4.421875 0-8-3.578125-8-8 0-4.425781 3.578125-8 8-8h32.035156c4.421875 0 8 3.574219 8 8 0 4.421875-3.578125 8-8 8zm0 0"/><path d="m256.289062 480.136719c-2.9375 0-5.761718-1.617188-7.167968-4.425781l-40-80.007813c-1.976563-3.949219-.378906-8.757813 3.574218-10.734375 3.953126-1.960938 8.753907-.375 10.738282 3.574219l40 80.007812c1.972656 3.953125.375 8.761719-3.578125 10.738281-1.144531.566407-2.359375.847657-3.566407.847657zm0 0"/><path d="m222.9375 477.496094c-2.9375 0-5.769531-1.617188-7.167969-4.425782l-38.679687-77.367187c-1.976563-3.949219-.378906-8.757813 3.574218-10.734375 3.953126-1.960938 8.769532-.375 10.734376 3.574219l38.679687 77.367187c1.976563 3.953125.378906 8.761719-3.574219 10.738282-1.144531.566406-2.359375.847656-3.566406.847656zm0 0"/><path d="m216.28125 400.128906h-32.035156c-4.421875 0-8-3.578125-8-8 0-4.425781 3.578125-8 8-8h32.035156c4.421875 0 8 3.574219 8 8 0 4.421875-3.578125 8-8 8zm0 0"/><path d="m256.367188 416.128906c-4.421876 0-8.039063-3.578125-8.039063-8 0-4.425781 3.535156-8 7.953125-8h.085938c4.417968 0 8 3.574219 8 8 0 4.421875-3.582032 8-8 8zm0 0"/><path d="m376.128906 443.519531c-4.425781 0-8-3.574219-8-8v-27.398437c0-4.425782 3.574219-8 8-8 4.421875 0 8 3.574218 8 8v27.398437c0 4.425781-3.585937 8-8 8zm0 0"/></svg>