<svg height="511pt" viewBox="-51 0 511 511.954" width="511pt" xmlns="http://www.w3.org/2000/svg"><path d="m370.960938 83.875-107.921876 107.917969-16.878906-17.039063-5.679687-5.609375 107.917969-107.910156zm0 0" fill="#965353"/><path d="m296.960938 248.433594c24.957031 24.960937 41.4375 49.039062 36.796874 53.761718-4.71875 4.640626-28.796874-11.832031-53.757812-36.800781-24.808594-24.800781-41.128906-48.640625-36.878906-53.601562 0-.078125 0-.078125.078125-.160157.089843-.078124.089843-.078124.167969-.078124 4.953124-4.242188 28.792968 12.078124 53.59375 36.878906zm0 0" fill="#aab2bd"/><path d="m333.757812 302.1875-22.636718 22.558594c-4.722656 4.71875-28.722656-11.761719-53.761719-36.800782-8.167969-8.167968-15.441406-16.320312-21.359375-23.597656-12.167969-15.042968-18.5625-26.960937-15.359375-30.082031l22.480469-22.488281c-4.242188 4.960937 12.078125 28.808594 36.878906 53.601562 24.960938 24.976563 49.039062 41.445313 53.757812 36.808594zm0 0" fill="#ccd1d9"/><path d="m206.398438 293.632812 30.320312 60.320313-30.238281 30.234375-45.359375-90.394531 22.71875-22.71875zm0 0" fill="#965353"/><path d="m263.039062 191.792969v.089843l-19.679687 19.679688c-.078125 0-.078125 0-.167969.078125-.082031.082031-.082031.082031-.082031.160156l-22.476563 22.488281-32 31.914063-4.808593 4.878906-22.722657 22.71875-28.238281 28.167969-33.910156 33.921875-16.960937-16.960937c-6.242188-6.238282-6.242188-16.40625 0-22.640626l113.191406-113.199218 39.519531-39.511719 5.761719 5.59375 5.679687 5.597656zm0 0" fill="#656d78"/><path d="m132.878906 321.953125 16.960938 39.601563-22.558594 22.632812-40.5625 97.125-22.640625 22.640625-55.597656-57.519531 84.800781-84.878906 5.679688-5.679688zm0 0" fill="#965353"/><path d="m206.472656 392.242188c-.425781 0-.847656-.03125-1.273437-.105469-2.535157-.414063-4.726563-2.015625-5.871094-4.3125l-45.359375-90.453125c-1.984375-3.953125-.394531-8.761719 3.558594-10.738282 3.953125-1.976562 8.769531-.382812 10.734375 3.5625l40.394531 80.542969 26.117188-26.121093c3.128906-3.128907 8.1875-3.128907 11.3125 0 3.128906 3.128906 3.128906 8.183593 0 11.3125l-33.949219 33.953124c-1.519531 1.535157-3.570313 2.359376-5.664063 2.359376zm0 0"/><path d="m64.078125 511.953125c-.023437 0-.046875 0-.070313 0-2.144531-.015625-4.183593-.894531-5.679687-2.4375l-55.601563-57.523437c-3.039062-3.140626-2.992187-8.132813.097657-11.214844l84.847656-84.839844c3.128906-3.128906 8.183594-3.128906 11.3125 0 3.125 3.128906 3.125 8.183594 0 11.3125l-79.289063 79.28125 44.488282 46.023438 15.757812-15.761719 39.953125-95.65625c.410157-.957031.984375-1.832031 1.730469-2.566407l18.773438-18.785156-14.832032-34.640625c-1.742187-4.0625.144532-8.765625 4.199219-10.503906 4.035156-1.765625 8.761719.128906 10.503906 4.203125l16.96875 39.613281c1.289063 3.007813.617188 6.496094-1.695312 8.808594l-21.488281 21.496094-39.953126 95.65625c-.40625.960937-.992187 1.832031-1.726562 2.566406l-22.632812 22.625c-1.511719 1.503906-3.542969 2.34375-5.664063 2.34375zm0 0"/><path d="m240.488281 177.160156c-2.050781 0-4.097656-.78125-5.65625-2.34375-3.128906-3.125-3.128906-8.183594 0-11.308594l161.160157-161.160156c3.128906-3.128906 8.183593-3.128906 11.3125 0 3.125 3.125 3.125 8.183594 0 11.308594l-161.160157 161.160156c-1.570312 1.5625-3.609375 2.34375-5.65625 2.34375zm0 0"/><path d="m206.375 301.625c-2.054688 0-4.113281-.789062-5.671875-2.359375-3.121094-3.136719-3.105469-8.191406.03125-11.3125l28.375-28.207031c3.136719-3.128906 8.195313-3.113282 11.3125.03125 3.121094 3.136718 3.105469 8.191406-.03125 11.3125l-28.375 28.207031c-1.558594 1.554687-3.601563 2.328125-5.640625 2.328125zm0 0"/><path d="m206.375 301.625c-2.046875 0-4.09375-.78125-5.65625-2.34375l-22.542969-22.550781c-3.128906-3.128907-3.128906-8.183594 0-11.3125 3.128907-3.128907 8.183594-3.128907 11.3125 0l22.542969 22.550781c3.128906 3.128906 3.128906 8.183594 0 11.3125-1.558594 1.5625-3.609375 2.34375-5.65625 2.34375zm0 0"/><path d="m93.320312 369.585938c-2.050781 0-4.097656-.785157-5.65625-2.34375-3.128906-3.128907-3.128906-8.183594 0-11.3125l169.703126-169.710938c3.128906-3.128906 8.183593-3.128906 11.3125 0 3.128906 3.128906 3.128906 8.183594 0 11.3125l-169.703126 169.710938c-1.5625 1.566406-3.609374 2.34375-5.65625 2.34375zm0 0"/><path d="m206.421875 279.035156c-.695313 0-1.40625-.089844-2.109375-.28125l-17.730469-4.824218c-4.253906-1.160157-6.78125-5.550782-5.613281-9.824219 1.167969-4.253907 5.574219-6.777344 9.824219-5.617188l17.726562 4.824219c4.253907 1.160156 6.785157 5.554688 5.617188 9.824219-.96875 3.554687-4.203125 5.898437-7.714844 5.898437zm0 0"/><path d="m236.703125 362.019531c-2.929687 0-5.75-1.617187-7.160156-4.417969l-30.320313-60.390624c-1.984375-3.945313-.390625-8.753907 3.5625-10.738282 3.957032-1.976562 8.75-.382812 10.734375 3.5625l30.320313 60.390625c1.984375 3.945313.390625 8.753907-3.558594 10.734375-1.144531.585938-2.378906.859375-3.578125.859375zm0 0"/><path d="m331.382812 310.984375c-16.320312 0-50.382812-33.246094-57.046874-39.910156-23.226563-23.230469-48.457032-53.375-36.777344-65.054688 1.441406-1.433593 3.984375-3.144531 8.007812-3.144531 16.3125 0 50.386719 33.238281 57.050782 39.902344 23.222656 23.234375 48.460937 53.375 36.773437 65.066406-1.429687 1.429688-3.984375 3.140625-8.007813 3.140625zm-76.054687-87.207031c5.34375 8.28125 15.199219 20.855468 30.320313 35.984375 15.125 15.128906 27.695312 24.984375 35.984374 30.328125-5.351562-8.28125-15.203124-20.863282-30.328124-35.992188-15.113282-15.121094-27.699219-24.976562-35.976563-30.320312zm0 0"/><path d="m309.136719 333.402344c-14.328125 0-38.21875-20.542969-57.402344-39.726563-23.222656-23.226562-48.464844-53.363281-36.765625-65.058593 3.125-3.128907 8.183594-3.128907 11.3125 0 2.367188 2.367187 2.941406 5.855468 1.71875 8.761718 1.511719 5.320313 12.351562 22.277344 35.046875 44.984375 22.703125 22.703125 39.664063 33.535157 44.976563 35.054688 2.917968-1.207031 6.398437-.648438 8.769531 1.71875 3.125 3.128906 3.125 8.183593 0 11.3125-2.042969 2.03125-4.632813 2.953125-7.65625 2.953125zm0 0"/><path d="m311.136719 332.792969c-2.050781 0-4.097657-.78125-5.65625-2.34375-3.128907-3.128907-3.128907-8.183594 0-11.3125l22.597656-22.597657c3.128906-3.128906 8.183594-3.128906 11.3125 0 3.128906 3.125 3.128906 8.183594 0 11.3125l-22.597656 22.597657c-1.5625 1.5625-3.609375 2.34375-5.65625 2.34375zm0 0"/><path d="m98.992188 363.921875c-2.050782 0-4.097657-.785156-5.65625-2.34375l-16.96875-16.96875c-3.128907-3.128906-3.128907-8.183594 0-11.3125 3.128906-3.125 8.183593-3.125 11.3125 0l16.96875 16.96875c3.125 3.128906 3.125 8.183594 0 11.3125-1.5625 1.566406-3.609376 2.34375-5.65625 2.34375zm0 0"/><path d="m82.023438 346.953125c-2.046876 0-4.097657-.78125-5.65625-2.335937-4.535157-4.535157-7.039063-10.558594-7.039063-16.976563 0-6.414063 2.503906-12.4375 7.039063-16.976563 3.128906-3.109374 8.191406-3.117187 11.320312.011719 3.121094 3.132813 3.121094 8.191407-.007812 11.316407-1.511719 1.503906-2.351563 3.515624-2.351563 5.648437 0 2.136719.832031 4.144531 2.351563 5.648437 3.128906 3.128907 3.128906 8.183594.007812 11.320313-1.558594 1.5625-3.617188 2.34375-5.664062 2.34375zm0 0"/><path d="m82.023438 324.328125c-2.046876 0-4.097657-.78125-5.65625-2.34375-3.128907-3.125-3.128907-8.183594 0-11.308594l152.726562-152.738281c3.128906-3.128906 8.1875-3.128906 11.3125 0 3.128906 3.128906 3.128906 8.183594 0 11.3125l-152.726562 152.734375c-1.558594 1.5625-3.609376 2.34375-5.65625 2.34375zm0 0"/><path d="m246.144531 182.816406c-2.035156 0-4.058593-.765625-5.617187-2.300781l-11.390625-11.234375c-3.152344-3.101562-3.175781-8.167969-.082031-11.3125 3.097656-3.144531 8.167968-3.175781 11.3125-.078125l11.390624 11.230469c3.152344 3.105468 3.175782 8.167968.082032 11.3125-1.570313 1.59375-3.632813 2.382812-5.695313 2.382812zm0 0"/><path d="m263.03125 199.875c-2.0625 0-4.121094-.792969-5.679688-2.367188l-16.886718-17.050781c-3.113282-3.136719-3.089844-8.199219.046875-11.3125 3.152343-3.117187 8.207031-3.085937 11.3125.058594l16.886719 17.046875c3.113281 3.136719 3.089843 8.199219-.046876 11.3125-1.5625 1.535156-3.601562 2.3125-5.632812 2.3125zm0 0"/><path d="m263.023438 199.867188c-2.046876 0-4.097657-.785157-5.65625-2.34375-3.128907-3.128907-3.128907-8.183594 0-11.3125l107.984374-107.984376c3.128907-3.128906 8.183594-3.128906 11.3125 0 3.128907 3.128907 3.128907 8.183594 0 11.3125l-107.984374 107.984376c-1.558594 1.558593-3.609376 2.34375-5.65625 2.34375zm0 0"/><path d="m371.007812 91.882812c-2.046874 0-4.097656-.785156-5.65625-2.34375l-22.617187-22.625c-3.128906-3.128906-3.128906-8.191406 0-11.3125 3.128906-3.128906 8.183594-3.128906 11.3125 0l22.617187 22.625c3.128907 3.128907 3.128907 8.191407 0 11.3125-1.5625 1.566407-3.609374 2.34375-5.65625 2.34375zm0 0"/><path d="m390.335938 27.3125c-2.046876 0-4.097657-.78125-5.65625-2.34375l-5.65625-5.65625c-3.128907-3.125-3.128907-8.183594 0-11.308594 3.128906-3.128906 8.183593-3.128906 11.3125 0l5.65625 5.652344c3.128906 3.128906 3.128906 8.1875 0 11.3125-1.5625 1.5625-3.609376 2.34375-5.65625 2.34375zm0 0"/><path d="m195.230469 211.113281c-2.046875 0-4.09375-.785156-5.65625-2.34375l-5.664063-5.664062c-3.125-3.128907-3.125-8.183594 0-11.3125 3.128906-3.128907 8.183594-3.128907 11.3125 0l5.664063 5.664062c3.128906 3.128907 3.128906 8.183594 0 11.3125-1.558594 1.558594-3.605469 2.34375-5.65625 2.34375zm0 0"/></svg>