<svg height="512" viewBox="0 0 512 512" width="512" xmlns="http://www.w3.org/2000/svg"><g id="filled_outline" data-name="filled outline"><path d="m187.389 345.537a146.092 146.092 0 0 0 -99.389 126.463h336a146.092 146.092 0 0 0 -99.389-126.463l-20.611-9.537h-96z" fill="#5b89b9"/><g fill="#fdc9a6"><path d="m333 213.014h7a28 28 0 0 0 28-28 28 28 0 0 0 -28-28h-4z"/><path d="m179 213.014h-7a28 28 0 0 1 -28-28 28 28 0 0 1 28-28h4z"/><path d="m328 376-32-56-9.475-28.424-61.418 1.103-9.107 27.321-32 63.17 48 88.83h48z"/><path d="m256 301.014a69.35 69.35 0 0 1 -60.029-34.624 148.589 148.589 0 0 1 -19.971-74.406v-82.97l80-8 80 8v82.97a148.589 148.589 0 0 1 -19.971 74.406 69.35 69.35 0 0 1 -60.029 34.624z"/></g><path d="m136 472v-40a8 8 0 0 1 16 0v40z" fill="#6699ce"/><path d="m360 472v-40a8 8 0 0 1 16 0v40z" fill="#6699ce"/><path d="m176 109.014v-2.388a61.615 61.615 0 0 1 23.123-48.111 61.612 61.612 0 0 1 38.489-13.5h18.388v56z" fill="#915628"/><path d="m218.65 104.74-16.89 1.69-16.3-32.6a61.852 61.852 0 0 1 11.25-13.28l21.41 42.82a7.442 7.442 0 0 1 .53 1.37z" fill="#915628"/><path d="m249.28 101.68-17.04 1.71-25.14-50.28a61.14 61.14 0 0 1 10.12-4.62c1.56-.55 3.13-1.03 4.73-1.45z" fill="#915628"/><path d="m336 109.014v-2.388a61.615 61.615 0 0 0 -23.123-48.111 61.612 61.612 0 0 0 -38.489-13.5h-18.388v56z" fill="#a3612d"/><path d="m304.9 53.1-25.14 50.29-17.04-1.71 27.32-54.64q2.4.63 4.74 1.45a61.923 61.923 0 0 1 10.12 4.61z" fill="#a3612d"/><path d="m326.54 73.83-16.3 32.6-17.04-1.7 22.02-44.05a.826.826 0 0 1 .07-.13 61.852 61.852 0 0 1 11.25 13.28z" fill="#a3612d"/><path d="m392.889 96-3.4 5.105a47.5 47.5 0 0 1 -24.5 18.716l-3.2 1.068a47.5 47.5 0 0 1 27.466 23.821l3.645 7.29 3.645-7.29a47.5 47.5 0 0 1 27.455-23.821l-3.2-1.068a47.505 47.505 0 0 1 -24.5-18.716z" fill="#ffc864"/><path d="m264 472 3.894-12.071a376 376 0 0 1 51.992-86.772l.114-.143-24-53.014 5.773 2.991a109.877 109.877 0 0 1 58.227 82.023l-40 16 8 26.986-40 24z" fill="#6699ce"/><path d="m248 472-3.894-12.071a376 376 0 0 0 -51.992-86.772l-.114-.143 24-53.014-5.773 2.991a109.877 109.877 0 0 0 -58.227 82.023l40 16-8 24 40 26.986z" fill="#6699ce"/><path d="m184 168h48v32h-48z" fill="#a6deff"/><path d="m280 168h48v32h-48z" fill="#a6deff"/><path d="m339.764 342.788a117.645 117.645 0 0 0 -34.311-26.9l-2.89-1.5-5.7-17.1a77.3 77.3 0 0 0 26.089-26.9 156.726 156.726 0 0 0 18.313-49.415 35.992 35.992 0 0 0 2.735-71.732v-42.615a69.614 69.614 0 0 0 -69.612-69.612h-36.776a69.614 69.614 0 0 0 -69.612 69.612v42.615a35.992 35.992 0 0 0 2.733 71.74 156.726 156.726 0 0 0 18.313 49.419 77.3 77.3 0 0 0 26.089 26.9l-5.7 17.1-2.89 1.5a117.664 117.664 0 0 0 -34.33 26.922 153.521 153.521 0 0 0 -92.187 128.514 8 8 0 0 0 7.972 8.664h336a8 8 0 0 0 7.972-8.664 153.73 153.73 0 0 0 -92.208-128.548zm-79.484 114.685-2.106 6.527h-4.348l-2.106-6.527q-.114-.354-.261-.7a384.026 384.026 0 0 0 -35.492-64.773h1.406a46.321 46.321 0 0 1 32.97 13.656 8 8 0 0 0 11.314 0 46.321 46.321 0 0 1 32.97-13.656h1.406a384.085 384.085 0 0 0 -35.492 64.777q-.147.342-.261.696zm61.082-300.459h-34.724a20.008 20.008 0 0 0 -19.6 16h-22.077a20.008 20.008 0 0 0 -19.6-16h-34.723a20.037 20.037 0 0 0 -6.638 1.129v-41.889l72-7.2 72 7.2v41.889a20.037 20.037 0 0 0 -6.638-1.129zm3.923 20.784-3.2 16a4.011 4.011 0 0 1 -3.922 3.215h-28.325a4.011 4.011 0 0 1 -3.922-3.216l-3.2-16a4 4 0 0 1 3.923-4.785h34.724a4 4 0 0 1 3.923 4.784zm-96 0-3.2 16a4.011 4.011 0 0 1 -3.922 3.215h-28.325a4.011 4.011 0 0 1 -3.922-3.216l-3.2-16a4 4 0 0 1 3.923-4.785h34.724a4 4 0 0 1 3.923 4.784zm-39.528-95.382 8.182 16.364-13.551 1.355a53.289 53.289 0 0 1 5.369-17.719zm137.855 17.719-13.551-1.355 8.182-16.364a53.289 53.289 0 0 1 5.369 17.719zm32.388 84.879a20.035 20.035 0 0 1 -16 19.6v-39.2a20.036 20.036 0 0 1 16 19.6zm-48.438-117.014-14.538 29.076-13.439-1.344 17.724-35.448a53.231 53.231 0 0 1 6.57 4.479c1.285 1.028 2.51 2.112 3.683 3.237zm-25.194-13.61-19.82 39.639-2.548-.255v-40.76h10.388a53.419 53.419 0 0 1 11.98 1.376zm-38.368-1.376v40.759l-2.548.255-19.82-39.638a53.419 53.419 0 0 1 11.98-1.376zm-37.309 7.27 17.724 35.448-13.44 1.344-14.537-29.076c1.173-1.126 2.4-2.21 3.683-3.238a53.231 53.231 0 0 1 6.57-4.478zm-42.691 144.328a20 20 0 0 1 0-39.2zm34.9 57.772a140.777 140.777 0 0 1 -17.578-51.293 19.877 19.877 0 0 0 8.52 1.923h28.324a20.054 20.054 0 0 0 19.612-16.077l1.585-7.923h4.395l-7.515 30.059a8 8 0 0 0 5.073 9.476l8 2.853a8 8 0 0 0 5.376-15.07l-1.167-.416 6.24-24.962a7.942 7.942 0 0 0 .231-1.94h4.649l1.585 7.922a20.054 20.054 0 0 0 19.612 16.078h28.324a19.877 19.877 0 0 0 8.52-1.923 140.777 140.777 0 0 1 -17.586 51.293 61.349 61.349 0 0 1 -106.208 0zm20.534 60.516c.048-.124 6.216-18.546 6.216-18.546a76.751 76.751 0 0 0 52.7 0l6.061 18.181c.042.128 22.292 49.346 22.292 49.346q-1.728 2.217-3.42 4.459a8 8 0 0 0 -2.283-.34h-10.373a62.157 62.157 0 0 0 -38.627 13.319 62.157 62.157 0 0 0 -38.627-13.319h-12.912q-1.571-2.07-3.164-4.124s22.085-48.847 22.137-48.976zm-69.822 48.623a117.523 117.523 0 0 0 -9.531 32.365 8 8 0 0 0 4.948 8.558l33 13.2-5.614 16.843a8 8 0 0 0 3.115 9.163l18.308 12.348h-45.838v-32a8 8 0 0 0 -16 0v32h-39.034a137.454 137.454 0 0 1 56.646-92.482zm72.834 92.477-32.935-22.221 6.078-18.235a8 8 0 0 0 -4.618-9.958l-33.978-13.592a102.027 102.027 0 0 1 21.754-44.883 7.885 7.885 0 0 0 .953-1.111 101.991 101.991 0 0 1 14.326-13.7l-13.316 29.413a8 8 0 0 0 1.031 8.287l.126.158a368.049 368.049 0 0 1 50.74 84.586l.407 1.26zm48.54 0 .407-1.26a368.056 368.056 0 0 1 50.752-84.6l.114-.144a8 8 0 0 0 1.029-8.282l-13.316-29.414a102.165 102.165 0 0 1 37.035 59.694l-33.978 13.592a8 8 0 0 0 -4.7 9.7l6.238 21.043-32.783 19.671zm101.014 0v-32a8 8 0 0 0 -16 0v32h-43.117l15.233-9.14a8 8 0 0 0 3.554-9.133l-5.927-19.995 33.228-13.291a8 8 0 0 0 4.948-8.558 117.47 117.47 0 0 0 -9.517-32.332 137.706 137.706 0 0 1 56.631 92.449z"/><path d="m272 256a8 8 0 0 0 0-16h-32a8 8 0 0 0 0 16z"/><path d="m426.53 113.3-3.2-1.07a39.682 39.682 0 0 1 -20.376-15.562l-3.4-5.106a8 8 0 0 0 -13.313 0l-3.4 5.106a39.691 39.691 0 0 1 -20.377 15.563l-3.2 1.069a8 8 0 0 0 0 15.179 39.242 39.242 0 0 1 22.84 19.808l3.645 7.29a8 8 0 0 0 14.311 0l3.645-7.29a39.245 39.245 0 0 1 22.841-19.809 8 8 0 0 0 0-15.179zm-33.641 21.778a54.992 54.992 0 0 0 -12.934-13.639 55.887 55.887 0 0 0 12.934-11.508 55.844 55.844 0 0 0 12.934 11.508 54.974 54.974 0 0 0 -12.934 13.639z"/><path d="m272 272a8 8 0 0 0 -8-8h-16a8 8 0 0 0 0 16h16a8 8 0 0 0 8-8z"/></g></svg>