<svg id="Layer_1" enable-background="new 0 0 512 512" height="512" viewBox="0 0 512 512" width="512" xmlns="http://www.w3.org/2000/svg"><g><g clip-rule="evenodd" fill-rule="evenodd"><path d="m103.277 248.098c0 37.541 67.782 67.973 151.396 67.973s151.396-30.432 151.396-67.973v-79.47c-.008-7.888-4.429-15.555-12.143-19.767l-126.965-69.655c-7.206-4.074-16.454-4.435-24.242-.183l-125.359 68.773c-8.309 3.613-14.083 11.582-14.083 20.832z" fill="#ddb9a3"/><path d="m254.673 316.071c-83.614 0-151.396-30.432-151.396-67.973v13.852 30.052c0 37.54 67.782 67.973 151.396 67.973 83.613 0 151.396-30.432 151.396-67.973v-30.874-13.03c0 37.541-67.783 67.973-151.396 67.973z" fill="#c68a65"/><path d="m406.069 292.002c0 37.54-67.782 67.973-151.396 67.973s-151.396-30.432-151.396-67.973l.001-30.053c-58.92 18.505-93.278 46.675-93.278 76.482 0 53.88 110.138 97.558 246 97.558s246-43.678 246-97.558c0-30.275-35.442-58.835-95.931-77.303z" fill="#d1a184"/></g><g><path d="m416.068 253.821v-85.204c-.012-11.764-6.661-22.697-17.333-28.523l-126.912-69.627c-10.422-5.863-23.404-5.949-33.915-.211l-124.99 68.57c-11.949 5.399-19.641 17.043-19.641 29.801v86.077c-59.329 20.056-93.277 50.453-93.277 83.727 0 30.438 27.831 58.239 78.365 78.28 47.608 18.88 110.694 29.278 177.635 29.278s130.026-10.398 177.634-29.278c50.535-20.041 78.366-47.841 78.366-78.28 0-33.834-34.915-64.554-95.932-84.61zm-294.721-96.854c.28-.122.555-.256.823-.403l125.342-68.763c2.213-1.209 4.686-1.813 7.16-1.813 2.551 0 5.103.642 7.37 1.923.037.021.074.042.11.062l126.983 69.665c4.272 2.333 6.93 6.547 6.935 10.99v80.093c-.003.059-.013.116-.016.175-.918 23.635-42.036 46.435-97.766 54.214-5.47.763-9.285 5.816-8.521 11.286.698 5.001 4.981 8.619 9.891 8.619.46 0 .926-.032 1.395-.098 42.057-5.87 75.301-18.978 95.017-36.307v5.391c0 13.78-14.01 27.973-38.438 38.941-27.335 12.272-63.899 19.031-102.958 19.031-39.058 0-75.622-6.759-102.957-19.031-24.428-10.968-38.438-25.161-38.438-38.941v-5.392c19.715 17.328 52.957 30.435 95.01 36.307.469.065.935.098 1.396.098 4.909 0 9.193-3.618 9.891-8.619.764-5.47-3.051-10.523-8.521-11.287-55.728-7.781-96.841-30.581-97.76-54.213-.002-.059-.012-.116-.016-.174v-80.094c-.002-4.952 3.165-9.529 8.068-11.66zm304.914 241.153c-45.318 17.972-105.784 27.87-170.261 27.87s-124.944-9.898-170.262-27.87c-41.778-16.569-65.738-38.324-65.738-59.689 0-22.781 27.183-45.817 73.277-62.548v16.119c0 22.33 17.845 42.639 50.247 57.187 29.855 13.404 69.328 20.786 111.148 20.786 41.821 0 81.294-7.382 111.149-20.786 32.402-14.548 50.247-34.857 50.247-57.187v-17.071c47.755 16.808 75.931 40.207 75.931 63.5.001 21.365-23.96 43.12-65.738 59.689z"/><path d="m159.716 204.908c37.494 0 70.498-24.174 80.257-58.787 1.499-5.315-1.595-10.84-6.911-12.338-5.311-1.497-10.84 1.594-12.338 6.911-7.341 26.033-32.428 44.214-61.008 44.214-5.523 0-10 4.477-10 10s4.477 10 10 10z"/><path d="m349.63 204.908c5.523 0 10-4.477 10-10s-4.477-10-10-10c-28.58 0-53.667-18.182-61.008-44.215-1.499-5.315-7.021-8.407-12.339-6.91-5.315 1.499-8.409 7.023-6.91 12.339 9.76 34.612 42.763 58.786 80.257 58.786z"/><path d="m254.672 326.071c5.523 0 10-4.477 10-10s-4.477-10-10-10h-.007c-5.523 0-9.996 4.477-9.996 10s4.48 10 10.003 10z"/></g></g></svg>