<svg height="496pt" viewBox="-80 0 496 496" width="496pt" xmlns="http://www.w3.org/2000/svg"><path d="m252.097656 199.921875c6.636719 0 12-5.449219 12-12v-20h-24v20c0 6.558594 5.359375 12 12 12zm84 200.078125v32.078125h-56v16h-.082031v47.921875h-64c-26.488281 0-47.917969-21.441406-47.917969-47.921875v-192l87.917969-160.078125-15.917969-8 24-46.71875 72 38.71875zm0 0" fill="#656d78"/><path d="m176.097656 241.511719-8 14.558593v192.007813c0 9.808594 2.949219 18.914063 8 26.507813zm0 0" fill="#434a54"/><path d="m168.015625 256.078125-88-160.078125 16-8-24-46.71875 32-17.28125h.082031l13.199219 48h.078125l28.640625 104 22.082031 79.921875zm0 0" fill="#aab2bd"/><path d="m216.097656 0 16 24-64 40-64-40 16-24zm0 0" fill="#e6e9ed"/><path d="m232.097656 24-13.28125 48-26.71875 16-24-24zm0 0" fill="#f5f7fa"/><path d="m192.097656 88-16 24h-16l-16.082031-24 24.082031-24zm0 0" fill="#ed5565"/><path d="m168.097656 64-24.082031 24-26.640625-16h-.078125l-13.199219-48zm0 0" fill="#f5f7fa"/><path d="m144.015625 88 16.082031 24-14.082031 64-28.640625-104zm0 0" fill="#e6e9ed"/><path d="m192.097656 88 26.71875-16-28.71875 104-14-64zm0 0" fill="#e6e9ed"/><path d="m176.097656 112 14 64-22 79.921875-22.082031-79.921875 14.082031-64zm0 0" fill="#da4453"/><path d="m240.097656 88 15.917969 8-87.917969 160.078125v-.15625l22-79.921875 28.71875-104 13.28125-48 32 17.28125zm0 0" fill="#aab2bd"/><path d="m264.097656 167.921875v20c0 6.550781-5.363281 12-12 12-6.640625 0-12-5.449219-12-12v-20zm0 0" fill="#ed5565"/><path d="m336.089844 392h.023437c-4.425781 0-8 3.574219-8 8s3.574219 8 8 8h-.023437.007812v-8zm0 0" fill="#ffce54"/><path d="m284.0625 228.015625c-2.199219 0-4 1.800781-4 4l-.03125 200.0625h7.984375l.046875-200.0625c0-2.199219-1.796875-4-4-4zm0 0" fill="#434a54"/><path d="m168.097656 384v64.078125h-.160156c0 26.488281-21.449219 47.921875-47.921875 47.921875h-64v-63.921875h-56v-352.078125l72-38.71875 24 46.71875-16 8 88 160.078125.082031-.15625zm0 0" fill="#656d78"/><path d="m.0234375 408h-.0234375c4.425781 0 8-3.574219 8-8s-3.574219-8-8-8h.0234375-.0078125v8zm0 0" fill="#ffce54"/><path d="m52.0625 228.015625c-2.199219 0-4 1.800781-4 4l-.03125 200.0625h7.984375l.046875-200.0625c0-2.199219-1.796875-4-4-4zm0 0" fill="#434a54"/><path d="m176.105469 312-.007813 16h.007813c4.421875 0 8-3.574219 8-8s-3.578125-8-8-8zm0 0" fill="#ffce54"/><path d="m176.105469 376.007812-.007813 16h.007813c4.421875 0 8-3.574218 8-8 0-4.421874-3.578125-8-8-8zm0 0" fill="#ffce54"/><path d="m252.054688 220.054688c-4.421876 0-8-3.574219-8-8v-16.167969c0-4.421875 3.578124-8 8-8 4.425781 0 8 3.578125 8 8v16.167969c0 4.425781-3.574219 8-8 8zm0 0" fill="#a0d468"/><path d="m268.054688 163.71875v23.976562c0 8.863282-7.132813 16-16 16-8.863282 0-16-7.136718-16-16v-23.976562zm0 0" fill="#ed5565"/></svg>